<?xml version="1.0" encoding="UTF-8"?>
<svg id="Laag_2" data-name="Laag 2" xmlns="http://www.w3.org/2000/svg" viewBox="0 0 526.63 91.68">
  <defs>
    <style>
      .cls-1 {
        fill: #fff;
      }

      .cls-2 {
        fill: #fff100;
      }

      .cls-3 {
        fill: #164194;
      }
    </style>
  </defs>
  <g id="Laag_1-2" data-name="Laag 1">
    <rect class="cls-1" width="134.98" height="91.68"/>
    <rect class="cls-3" x="2.6" y="2.51" width="129.79" height="86.52"/>
    <polygon class="cls-2" points="64.72 21.37 67.46 19.37 70.2 21.37 69.16 18.13 71.94 16.13 68.51 16.13 67.46 12.86 66.41 16.14 62.99 16.13 65.76 18.13 64.72 21.37"/>
    <polygon class="cls-2" points="50.55 25.17 53.29 23.18 56.03 25.17 54.99 21.94 57.77 19.94 54.34 19.94 53.29 16.67 52.24 19.95 48.81 19.94 51.59 21.94 50.55 25.17"/>
    <polygon class="cls-2" points="42.92 27.06 41.87 30.34 38.44 30.34 41.22 32.33 40.18 35.57 42.92 33.57 45.66 35.57 44.62 32.33 47.4 30.34 43.97 30.34 42.92 27.06"/>
    <polygon class="cls-2" points="39.12 47.72 41.85 49.72 40.81 46.49 43.59 44.49 40.17 44.49 39.12 41.22 38.07 44.5 34.64 44.49 37.42 46.49 36.38 49.72 39.12 47.72"/>
    <polygon class="cls-2" points="43.97 58.69 42.92 55.41 41.87 58.69 38.44 58.69 41.22 60.69 40.18 63.92 42.92 61.92 45.66 63.92 44.62 60.69 47.4 58.69 43.97 58.69"/>
    <polygon class="cls-2" points="54.36 69.08 53.31 65.81 52.26 69.08 48.83 69.08 51.61 71.08 50.57 74.31 53.31 72.31 56.05 74.31 55.01 71.08 57.79 69.08 54.36 69.08"/>
    <polygon class="cls-2" points="68.51 72.84 67.46 69.57 66.42 72.85 62.99 72.84 65.77 74.84 64.73 78.07 67.46 76.07 70.2 78.07 69.16 74.84 71.94 72.84 68.51 72.84"/>
    <polygon class="cls-2" points="82.67 69.08 81.62 65.81 80.57 69.08 77.14 69.08 79.92 71.08 78.88 74.31 81.62 72.31 84.36 74.31 83.31 71.08 86.1 69.08 82.67 69.08"/>
    <polygon class="cls-2" points="93.06 58.69 92.01 55.41 90.96 58.69 87.53 58.69 90.32 60.69 89.27 63.92 92.01 61.92 94.75 63.92 93.7 60.69 96.49 58.69 93.06 58.69"/>
    <polygon class="cls-2" points="100.25 44.45 96.82 44.45 95.77 41.18 94.72 44.45 91.29 44.45 94.08 46.45 93.04 49.68 95.77 47.68 98.51 49.68 97.47 46.45 100.25 44.45"/>
    <polygon class="cls-2" points="89.27 35.52 92.01 33.52 94.75 35.52 93.7 32.29 96.48 30.3 93.06 30.3 92.01 27.02 90.96 30.3 87.53 30.3 90.31 32.29 89.27 35.52"/>
    <polygon class="cls-2" points="81.66 16.67 80.61 19.95 77.18 19.94 79.96 21.94 78.92 25.18 81.66 23.18 84.4 25.18 83.36 21.94 86.14 19.94 82.71 19.94 81.66 16.67"/>
    <g>
      <path class="cls-1" d="M156.4,35.33V10.53h18.38v4.19h-13.38v5.5h12.45v4.18h-12.45v6.75h13.85v4.18h-18.86Z"/>
      <path class="cls-1" d="M179.12,10.53h5.01v13.43c0,2.13,.06,3.51,.19,4.14,.21,1.01,.72,1.83,1.53,2.44,.81,.61,1.91,.92,3.31,.92s2.49-.29,3.21-.87c.72-.58,1.16-1.29,1.3-2.14s.22-2.25,.22-4.21V10.53h5.01v13.02c0,2.98-.13,5.08-.41,6.31-.27,1.23-.77,2.27-1.5,3.11-.73,.85-1.7,1.52-2.92,2.02-1.22,.5-2.81,.75-4.77,.75-2.37,0-4.16-.27-5.39-.82s-2.19-1.26-2.9-2.13c-.71-.87-1.18-1.79-1.4-2.75-.33-1.42-.49-3.52-.49-6.29V10.53Z"/>
      <path class="cls-1" d="M204.19,35.33V10.53h10.54c2.65,0,4.58,.22,5.78,.67,1.2,.45,2.16,1.24,2.88,2.38,.72,1.14,1.08,2.44,1.08,3.91,0,1.86-.55,3.4-1.64,4.61-1.09,1.21-2.73,1.98-4.91,2.29,1.08,.63,1.98,1.33,2.68,2.08s1.65,2.1,2.85,4.03l3.03,4.84h-5.99l-3.62-5.4c-1.29-1.93-2.17-3.14-2.64-3.65-.47-.5-.98-.85-1.5-1.03-.53-.19-1.37-.28-2.52-.28h-1.01v10.35h-5.01Zm5.01-14.31h3.7c2.4,0,3.9-.1,4.5-.3s1.07-.55,1.4-1.05c.34-.5,.51-1.12,.51-1.86,0-.83-.22-1.51-.67-2.02s-1.07-.84-1.89-.97c-.41-.06-1.62-.08-3.65-.08h-3.91v6.29Z"/>
      <path class="cls-1" d="M227.92,23.08c0-2.53,.38-4.65,1.13-6.36,.56-1.26,1.33-2.4,2.31-3.4,.98-1,2.04-1.75,3.21-2.23,1.54-.65,3.33-.98,5.34-.98,3.65,0,6.58,1.13,8.77,3.4,2.19,2.27,3.29,5.42,3.29,9.46s-1.09,7.14-3.26,9.4c-2.18,2.26-5.09,3.39-8.73,3.39s-6.62-1.12-8.8-3.37c-2.18-2.25-3.26-5.35-3.26-9.29Zm5.16-.17c0,2.81,.65,4.94,1.95,6.39,1.3,1.45,2.94,2.17,4.94,2.17s3.63-.72,4.91-2.16c1.28-1.44,1.92-3.59,1.92-6.47s-.62-4.96-1.87-6.36c-1.25-1.4-2.9-2.1-4.96-2.1s-3.73,.71-4.99,2.12-1.89,3.55-1.89,6.4Z"/>
      <path class="cls-1" d="M255.89,35.33V10.53h8.03c3.04,0,5.03,.12,5.95,.37,1.42,.37,2.61,1.18,3.57,2.43,.96,1.25,1.44,2.86,1.44,4.83,0,1.52-.28,2.8-.83,3.84s-1.25,1.85-2.11,2.44c-.85,.59-1.72,.98-2.6,1.18-1.2,.24-2.93,.35-5.19,.35h-3.26v9.35h-5.01Zm5.01-20.6v7.04h2.74c1.97,0,3.29-.13,3.96-.39,.67-.26,1.19-.67,1.56-1.22,.38-.55,.57-1.2,.57-1.93,0-.9-.26-1.65-.79-2.23-.53-.59-1.2-.95-2.01-1.1-.6-.11-1.8-.17-3.6-.17h-2.42Z"/>
      <g>
        <path class="cls-1" d="M279.09,35.33V10.53h18.38v4.19h-13.38v5.5h12.45v4.18h-12.45v6.75h13.85v4.18h-18.86Z"/>
        <path class="cls-1" d="M324.56,35.33h-5.45l-2.17-5.63h-9.91l-2.05,5.63h-5.31l9.66-24.8h5.29l9.93,24.8Zm-9.22-9.81l-3.42-9.2-3.35,9.2h6.77Z"/>
        <path class="cls-1" d="M327.27,35.33V10.53h4.87l10.15,16.56V10.53h4.65v24.8h-5.02l-10-16.17v16.17h-4.65Z"/>
        <path class="cls-1" d="M361.82,10.53h5.01v13.43c0,2.13,.06,3.51,.19,4.14,.21,1.01,.72,1.83,1.53,2.44,.81,.61,1.91,.92,3.31,.92s2.49-.29,3.21-.87c.72-.58,1.16-1.29,1.3-2.14s.22-2.25,.22-4.21V10.53h5.01v13.02c0,2.98-.13,5.08-.41,6.31-.27,1.23-.77,2.27-1.5,3.11-.73,.85-1.7,1.52-2.92,2.02-1.22,.5-2.81,.75-4.77,.75-2.37,0-4.16-.27-5.39-.82s-2.19-1.26-2.9-2.13c-.71-.87-1.18-1.79-1.4-2.75-.33-1.42-.49-3.52-.49-6.29V10.53Z"/>
        <path class="cls-1" d="M386.92,35.33V10.53h4.87l10.15,16.56V10.53h4.65v24.8h-5.02l-10-16.17v16.17h-4.65Z"/>
        <path class="cls-1" d="M411.73,35.33V10.53h5.01v24.8h-5.01Z"/>
        <path class="cls-1" d="M420.49,23.08c0-2.53,.38-4.65,1.13-6.36,.56-1.26,1.33-2.4,2.31-3.4,.98-1,2.04-1.75,3.21-2.23,1.54-.65,3.33-.98,5.34-.98,3.65,0,6.58,1.13,8.77,3.4,2.19,2.27,3.29,5.42,3.29,9.46s-1.09,7.14-3.26,9.4c-2.18,2.26-5.09,3.39-8.73,3.39s-6.62-1.12-8.8-3.37c-2.18-2.25-3.26-5.35-3.26-9.29Zm5.16-.17c0,2.81,.65,4.94,1.95,6.39,1.3,1.45,2.94,2.17,4.94,2.17s3.63-.72,4.91-2.16c1.28-1.44,1.92-3.59,1.92-6.47s-.62-4.96-1.87-6.36c-1.25-1.4-2.9-2.1-4.96-2.1s-3.73,.71-4.99,2.12-1.89,3.55-1.89,6.4Z"/>
        <path class="cls-1" d="M448.5,35.33V10.53h4.87l10.15,16.56V10.53h4.65v24.8h-5.02l-10-16.17v16.17h-4.65Z"/>
      </g>
      <g>
        <path class="cls-1" d="M155.59,64.94v-15.5h11.21v1.83h-9.15v4.75h8.57v1.82h-8.57v5.27h9.51v1.83h-11.56Z"/>
        <path class="cls-1" d="M177.11,64.94v-1.65c-.87,1.27-2.06,1.9-3.56,1.9-.66,0-1.28-.13-1.86-.38-.58-.25-1-.57-1.28-.96-.28-.38-.47-.85-.59-1.41-.08-.37-.12-.96-.12-1.78v-6.96h1.9v6.23c0,.99,.04,1.66,.12,2.01,.12,.5,.37,.89,.76,1.18,.39,.29,.87,.43,1.44,.43s1.11-.15,1.61-.44c.5-.29,.85-.69,1.06-1.2,.21-.5,.31-1.23,.31-2.19v-6.01h1.9v11.23h-1.7Z"/>
        <path class="cls-1" d="M181.77,64.94v-11.23h1.71v1.7c.44-.8,.84-1.32,1.21-1.58s.78-.38,1.22-.38c.64,0,1.29,.2,1.96,.61l-.66,1.77c-.47-.28-.93-.41-1.4-.41-.42,0-.79,.12-1.12,.38s-.57,.6-.71,1.04c-.21,.68-.32,1.42-.32,2.22v5.88h-1.9Z"/>
        <path class="cls-1" d="M188.29,59.32c0-2.08,.58-3.62,1.73-4.62,.97-.83,2.14-1.25,3.53-1.25,1.54,0,2.8,.51,3.78,1.52,.98,1.01,1.47,2.41,1.47,4.19,0,1.44-.22,2.58-.65,3.41s-1.06,1.47-1.89,1.93c-.83,.46-1.73,.69-2.71,.69-1.57,0-2.84-.5-3.81-1.51-.97-1.01-1.45-2.46-1.45-4.36Zm1.96,0c0,1.44,.31,2.51,.94,3.23,.63,.72,1.42,1.07,2.37,1.07s1.73-.36,2.36-1.08c.63-.72,.94-1.82,.94-3.29,0-1.39-.32-2.44-.95-3.16-.63-.72-1.42-1.07-2.35-1.07s-1.74,.36-2.37,1.07-.94,1.79-.94,3.22Z"/>
        <path class="cls-1" d="M201.04,69.24v-15.53h1.73v1.46c.41-.57,.87-1,1.38-1.29,.51-.29,1.14-.43,1.87-.43,.96,0,1.8,.25,2.54,.74,.73,.49,1.29,1.19,1.66,2.09,.37,.9,.56,1.88,.56,2.95,0,1.15-.21,2.18-.62,3.1-.41,.92-1.01,1.62-1.8,2.11-.79,.49-1.61,.74-2.48,.74-.63,0-1.2-.13-1.71-.4-.5-.27-.92-.61-1.24-1.01v5.47h-1.9Zm1.72-9.85c0,1.44,.29,2.51,.88,3.2s1.29,1.04,2.12,1.04,1.57-.36,2.17-1.07c.6-.71,.9-1.82,.9-3.32s-.29-2.5-.88-3.21c-.59-.71-1.29-1.07-2.11-1.07s-1.53,.38-2.15,1.14-.94,1.86-.94,3.3Z"/>
        <path class="cls-1" d="M220.77,61.32l1.97,.24c-.31,1.15-.88,2.04-1.72,2.67-.84,.63-1.91,.95-3.21,.95-1.64,0-2.94-.51-3.91-1.52-.96-1.01-1.44-2.43-1.44-4.25s.49-3.35,1.46-4.4,2.23-1.56,3.78-1.56,2.73,.51,3.68,1.53c.95,1.02,1.43,2.46,1.43,4.31,0,.11,0,.28-.01,.51h-8.37c.07,1.23,.42,2.18,1.05,2.83s1.41,.98,2.35,.98c.7,0,1.29-.18,1.79-.55,.49-.37,.88-.95,1.17-1.75Zm-6.25-3.08h6.27c-.08-.94-.32-1.65-.72-2.12-.61-.73-1.39-1.1-2.36-1.1-.87,0-1.61,.29-2.2,.88-.6,.58-.92,1.37-.99,2.35Z"/>
        <path class="cls-1" d="M232.45,63.55c-.71,.6-1.38,1.02-2.04,1.27-.65,.25-1.35,.37-2.1,.37-1.23,0-2.18-.3-2.84-.9-.66-.6-.99-1.37-.99-2.31,0-.55,.12-1.05,.38-1.51,.25-.45,.58-.82,.98-1.09,.41-.27,.86-.48,1.37-.62,.37-.1,.94-.19,1.69-.29,1.54-.18,2.67-.4,3.39-.66,0-.26,.01-.43,.01-.5,0-.78-.18-1.32-.54-1.64-.49-.43-1.21-.64-2.17-.64-.89,0-1.56,.16-1.98,.47-.43,.31-.74,.87-.95,1.67l-1.86-.25c.17-.8,.45-1.44,.83-1.93,.39-.49,.95-.87,1.68-1.13,.73-.26,1.58-.4,2.55-.4s1.74,.11,2.34,.34c.6,.23,1.04,.51,1.32,.85,.28,.34,.48,.77,.59,1.29,.06,.32,.1,.91,.1,1.75v2.54c0,1.77,.04,2.89,.12,3.36s.24,.92,.48,1.35h-1.99c-.2-.39-.32-.86-.38-1.38Zm-.16-4.25c-.69,.28-1.73,.52-3.11,.72-.78,.11-1.34,.24-1.66,.38-.32,.14-.58,.35-.75,.62-.18,.27-.26,.57-.26,.9,0,.51,.19,.93,.58,1.27,.38,.34,.95,.51,1.69,.51s1.38-.16,1.96-.48c.57-.32,.99-.76,1.26-1.32,.2-.43,.31-1.06,.31-1.9v-.7Z"/>
        <path class="cls-1" d="M237.16,64.94v-11.23h1.71v1.6c.82-1.23,2.02-1.85,3.57-1.85,.68,0,1.3,.12,1.87,.37s.99,.56,1.27,.96c.28,.39,.48,.86,.59,1.41,.07,.35,.11,.97,.11,1.85v6.9h-1.9v-6.83c0-.78-.07-1.35-.22-1.74-.15-.38-.41-.69-.79-.92-.38-.23-.82-.34-1.33-.34-.81,0-1.51,.26-2.1,.77-.59,.51-.88,1.49-.88,2.93v6.13h-1.9Z"/>
        <path class="cls-1" d="M255.49,64.94v-15.5h6.87c1.38,0,2.43,.14,3.15,.42s1.29,.77,1.72,1.47c.43,.71,.65,1.48,.65,2.34,0,1.1-.36,2.03-1.07,2.78-.71,.75-1.81,1.23-3.3,1.44,.54,.26,.96,.52,1.24,.77,.6,.55,1.17,1.24,1.7,2.06l2.7,4.22h-2.58l-2.05-3.22c-.6-.93-1.09-1.64-1.48-2.13s-.73-.84-1.04-1.04-.62-.33-.94-.41c-.23-.05-.61-.07-1.14-.07h-2.38v6.88h-2.05Zm2.05-8.66h4.41c.94,0,1.67-.1,2.2-.29,.53-.19,.93-.5,1.21-.93,.27-.43,.41-.89,.41-1.39,0-.73-.27-1.34-.8-1.81-.53-.47-1.37-.71-2.52-.71h-4.91v5.13Z"/>
        <path class="cls-1" d="M278.54,61.32l1.97,.24c-.31,1.15-.88,2.04-1.72,2.67-.84,.63-1.91,.95-3.21,.95-1.64,0-2.94-.51-3.91-1.52-.96-1.01-1.44-2.43-1.44-4.25s.49-3.35,1.46-4.4,2.23-1.56,3.78-1.56,2.73,.51,3.68,1.53c.95,1.02,1.43,2.46,1.43,4.31,0,.11,0,.28-.01,.51h-8.37c.07,1.23,.42,2.18,1.05,2.83s1.41,.98,2.35,.98c.7,0,1.29-.18,1.79-.55,.49-.37,.88-.95,1.17-1.75Zm-6.25-3.08h6.27c-.08-.94-.32-1.65-.72-2.12-.61-.73-1.39-1.1-2.36-1.1-.87,0-1.61,.29-2.2,.88-.6,.58-.92,1.37-.99,2.35Z"/>
        <path class="cls-1" d="M282.54,65.87l1.85,.27c.08,.57,.29,.99,.64,1.25,.47,.35,1.12,.53,1.93,.53,.88,0,1.56-.18,2.04-.53s.8-.85,.97-1.48c.1-.39,.14-1.2,.14-2.44-.83,.98-1.87,1.47-3.11,1.47-1.54,0-2.74-.56-3.58-1.67-.85-1.11-1.27-2.45-1.27-4.01,0-1.07,.19-2.06,.58-2.96,.39-.91,.95-1.61,1.69-2.1s1.6-.74,2.6-.74c1.33,0,2.42,.54,3.28,1.61v-1.35h1.75v9.7c0,1.75-.18,2.99-.53,3.72-.36,.73-.92,1.31-1.69,1.73s-1.72,.63-2.85,.63c-1.34,0-2.42-.3-3.25-.9-.82-.6-1.22-1.51-1.19-2.72Zm1.58-6.75c0,1.47,.29,2.55,.88,3.22,.58,.68,1.32,1.01,2.2,1.01s1.61-.34,2.2-1.01c.59-.67,.89-1.73,.89-3.17s-.3-2.41-.91-3.11c-.61-.7-1.34-1.05-2.2-1.05s-1.56,.34-2.16,1.03c-.59,.69-.89,1.71-.89,3.06Z"/>
        <path class="cls-1" d="M294.95,51.63v-2.19h1.9v2.19h-1.9Zm0,13.31v-11.23h1.9v11.23h-1.9Z"/>
        <path class="cls-1" d="M299.04,59.32c0-2.08,.58-3.62,1.73-4.62,.97-.83,2.14-1.25,3.53-1.25,1.54,0,2.8,.51,3.78,1.52,.98,1.01,1.47,2.41,1.47,4.19,0,1.44-.22,2.58-.65,3.41s-1.06,1.47-1.89,1.93c-.83,.46-1.73,.69-2.71,.69-1.57,0-2.84-.5-3.81-1.51-.97-1.01-1.45-2.46-1.45-4.36Zm1.96,0c0,1.44,.31,2.51,.94,3.23,.63,.72,1.42,1.07,2.37,1.07s1.73-.36,2.36-1.08c.63-.72,.94-1.82,.94-3.29,0-1.39-.32-2.44-.95-3.16-.63-.72-1.42-1.07-2.35-1.07s-1.74,.36-2.37,1.07-.94,1.79-.94,3.22Z"/>
        <path class="cls-1" d="M311.79,64.94v-11.23h1.71v1.6c.82-1.23,2.02-1.85,3.57-1.85,.68,0,1.3,.12,1.87,.37s.99,.56,1.27,.96c.28,.39,.48,.86,.59,1.41,.07,.35,.11,.97,.11,1.85v6.9h-1.9v-6.83c0-.78-.07-1.35-.22-1.74-.15-.38-.41-.69-.79-.92-.38-.23-.82-.34-1.33-.34-.81,0-1.51,.26-2.1,.77-.59,.51-.88,1.49-.88,2.93v6.13h-1.9Z"/>
        <path class="cls-1" d="M331.15,63.55c-.71,.6-1.38,1.02-2.04,1.27-.65,.25-1.35,.37-2.1,.37-1.23,0-2.18-.3-2.84-.9-.66-.6-.99-1.37-.99-2.31,0-.55,.12-1.05,.38-1.51,.25-.45,.58-.82,.98-1.09,.41-.27,.86-.48,1.37-.62,.37-.1,.94-.19,1.69-.29,1.54-.18,2.67-.4,3.39-.66,0-.26,.01-.43,.01-.5,0-.78-.18-1.32-.54-1.64-.49-.43-1.21-.64-2.17-.64-.89,0-1.56,.16-1.98,.47-.43,.31-.74,.87-.95,1.67l-1.86-.25c.17-.8,.45-1.44,.83-1.93,.39-.49,.95-.87,1.68-1.13,.73-.26,1.58-.4,2.55-.4s1.74,.11,2.34,.34c.6,.23,1.04,.51,1.32,.85,.28,.34,.48,.77,.59,1.29,.06,.32,.1,.91,.1,1.75v2.54c0,1.77,.04,2.89,.12,3.36s.24,.92,.48,1.35h-1.99c-.2-.39-.32-.86-.38-1.38Zm-.16-4.25c-.69,.28-1.73,.52-3.11,.72-.78,.11-1.34,.24-1.66,.38-.32,.14-.58,.35-.75,.62-.18,.27-.26,.57-.26,.9,0,.51,.19,.93,.58,1.27,.38,.34,.95,.51,1.69,.51s1.38-.16,1.96-.48c.57-.32,.99-.76,1.26-1.32,.2-.43,.31-1.06,.31-1.9v-.7Z"/>
        <path class="cls-1" d="M335.83,64.94v-15.5h1.9v15.5h-1.9Z"/>
        <path class="cls-1" d="M346.93,64.94v-15.5h5.34c1.21,0,2.12,.07,2.76,.22,.89,.2,1.65,.57,2.27,1.11,.82,.69,1.43,1.57,1.83,2.65,.41,1.08,.61,2.3,.61,3.68,0,1.18-.14,2.22-.41,3.13-.27,.91-.63,1.66-1.06,2.26-.43,.6-.9,1.06-1.41,1.41-.51,.34-1.13,.6-1.85,.78-.72,.18-1.55,.26-2.49,.26h-5.59Zm2.05-1.83h3.31c1.02,0,1.82-.09,2.4-.29,.58-.19,1.04-.46,1.39-.8,.49-.49,.87-1.14,1.14-1.96,.27-.82,.41-1.82,.41-2.99,0-1.62-.27-2.87-.8-3.74-.53-.87-1.18-1.45-1.94-1.75-.55-.21-1.43-.32-2.65-.32h-3.26v11.84Z"/>
        <path class="cls-1" d="M370.01,61.32l1.97,.24c-.31,1.15-.88,2.04-1.72,2.67-.84,.63-1.91,.95-3.21,.95-1.64,0-2.94-.51-3.91-1.52-.96-1.01-1.44-2.43-1.44-4.25s.49-3.35,1.46-4.4,2.23-1.56,3.78-1.56,2.73,.51,3.68,1.53c.95,1.02,1.43,2.46,1.43,4.31,0,.11,0,.28-.01,.51h-8.37c.07,1.23,.42,2.18,1.05,2.83s1.41,.98,2.35,.98c.7,0,1.29-.18,1.79-.55,.49-.37,.88-.95,1.17-1.75Zm-6.25-3.08h6.27c-.08-.94-.32-1.65-.72-2.12-.61-.73-1.39-1.1-2.36-1.1-.87,0-1.61,.29-2.2,.88-.6,.58-.92,1.37-.99,2.35Z"/>
        <path class="cls-1" d="M377.49,64.94l-4.27-11.23h2.01l2.41,6.72c.26,.73,.5,1.48,.72,2.26,.17-.59,.41-1.3,.71-2.14l2.49-6.85h1.96l-4.25,11.23h-1.78Z"/>
        <path class="cls-1" d="M392.88,61.32l1.97,.24c-.31,1.15-.88,2.04-1.72,2.67-.84,.63-1.91,.95-3.21,.95-1.64,0-2.94-.51-3.91-1.52-.96-1.01-1.44-2.43-1.44-4.25s.49-3.35,1.46-4.4,2.23-1.56,3.78-1.56,2.73,.51,3.68,1.53c.95,1.02,1.43,2.46,1.43,4.31,0,.11,0,.28-.01,.51h-8.37c.07,1.23,.42,2.18,1.05,2.83s1.41,.98,2.35,.98c.7,0,1.29-.18,1.79-.55,.49-.37,.88-.95,1.17-1.75Zm-6.25-3.08h6.27c-.08-.94-.32-1.65-.72-2.12-.61-.73-1.39-1.1-2.36-1.1-.87,0-1.61,.29-2.2,.88-.6,.58-.92,1.37-.99,2.35Z"/>
        <path class="cls-1" d="M397.19,64.94v-15.5h1.9v15.5h-1.9Z"/>
        <path class="cls-1" d="M401.33,59.32c0-2.08,.58-3.62,1.73-4.62,.97-.83,2.14-1.25,3.53-1.25,1.54,0,2.8,.51,3.78,1.52,.98,1.01,1.47,2.41,1.47,4.19,0,1.44-.22,2.58-.65,3.41s-1.06,1.47-1.89,1.93c-.83,.46-1.73,.69-2.71,.69-1.57,0-2.84-.5-3.81-1.51-.97-1.01-1.45-2.46-1.45-4.36Zm1.96,0c0,1.44,.31,2.51,.94,3.23,.63,.72,1.42,1.07,2.37,1.07s1.73-.36,2.36-1.08c.63-.72,.94-1.82,.94-3.29,0-1.39-.32-2.44-.95-3.16-.63-.72-1.42-1.07-2.35-1.07s-1.74,.36-2.37,1.07-.94,1.79-.94,3.22Z"/>
        <path class="cls-1" d="M414.08,69.24v-15.53h1.73v1.46c.41-.57,.87-1,1.38-1.29,.51-.29,1.14-.43,1.87-.43,.96,0,1.8,.25,2.54,.74,.73,.49,1.29,1.19,1.66,2.09,.37,.9,.56,1.88,.56,2.95,0,1.15-.21,2.18-.62,3.1-.41,.92-1.01,1.62-1.8,2.11-.79,.49-1.61,.74-2.48,.74-.63,0-1.2-.13-1.71-.4-.5-.27-.92-.61-1.24-1.01v5.47h-1.9Zm1.72-9.85c0,1.44,.29,2.51,.88,3.2s1.29,1.04,2.12,1.04,1.57-.36,2.17-1.07c.6-.71,.9-1.82,.9-3.32s-.29-2.5-.88-3.21c-.59-.71-1.29-1.07-2.11-1.07s-1.53,.38-2.15,1.14-.94,1.86-.94,3.3Z"/>
        <path class="cls-1" d="M426.13,64.94v-11.23h1.7v1.58c.35-.55,.82-.99,1.41-1.33,.58-.33,1.25-.5,2-.5,.83,0,1.51,.17,2.04,.52,.53,.35,.91,.83,1.13,1.45,.89-1.31,2.04-1.97,3.47-1.97,1.11,0,1.97,.31,2.57,.92,.6,.62,.9,1.57,.9,2.85v7.71h-1.89v-7.07c0-.76-.06-1.31-.19-1.64-.12-.33-.35-.6-.67-.81-.32-.21-.71-.31-1.14-.31-.79,0-1.45,.26-1.97,.79-.52,.53-.78,1.37-.78,2.52v6.52h-1.9v-7.29c0-.85-.16-1.48-.46-1.9-.31-.42-.82-.63-1.52-.63-.54,0-1.03,.14-1.49,.42-.46,.28-.78,.69-.99,1.24-.21,.54-.31,1.33-.31,2.35v5.83h-1.9Z"/>
        <path class="cls-1" d="M451.84,61.32l1.97,.24c-.31,1.15-.88,2.04-1.72,2.67-.84,.63-1.91,.95-3.21,.95-1.64,0-2.94-.51-3.91-1.52-.96-1.01-1.44-2.43-1.44-4.25s.49-3.35,1.46-4.4,2.23-1.56,3.78-1.56,2.73,.51,3.68,1.53c.95,1.02,1.43,2.46,1.43,4.31,0,.11,0,.28-.01,.51h-8.37c.07,1.23,.42,2.18,1.05,2.83s1.41,.98,2.35,.98c.7,0,1.29-.18,1.79-.55,.49-.37,.88-.95,1.17-1.75Zm-6.25-3.08h6.27c-.08-.94-.32-1.65-.72-2.12-.61-.73-1.39-1.1-2.36-1.1-.87,0-1.61,.29-2.2,.88-.6,.58-.92,1.37-.99,2.35Z"/>
        <path class="cls-1" d="M456.2,64.94v-11.23h1.71v1.6c.82-1.23,2.02-1.85,3.57-1.85,.68,0,1.3,.12,1.87,.37s.99,.56,1.27,.96c.28,.39,.48,.86,.59,1.41,.07,.35,.11,.97,.11,1.85v6.9h-1.9v-6.83c0-.78-.07-1.35-.22-1.74-.15-.38-.41-.69-.79-.92-.38-.23-.82-.34-1.33-.34-.81,0-1.51,.26-2.1,.77-.59,.51-.88,1.49-.88,2.93v6.13h-1.9Z"/>
        <path class="cls-1" d="M472.4,63.23l.27,1.68c-.54,.11-1.01,.17-1.44,.17-.69,0-1.23-.11-1.61-.33-.38-.22-.65-.51-.8-.86-.16-.36-.23-1.1-.23-2.25v-6.46h-1.4v-1.48h1.4v-2.78l1.89-1.14v3.92h1.91v1.48h-1.91v6.57c0,.54,.03,.89,.1,1.05,.07,.16,.18,.28,.33,.37,.15,.09,.37,.14,.65,.14,.21,0,.49-.02,.84-.07Z"/>
        <path class="cls-1" d="M480.62,64.94v-15.5h10.46v1.83h-8.4v4.8h7.27v1.83h-7.27v7.04h-2.05Z"/>
        <path class="cls-1" d="M500.85,64.94v-1.65c-.87,1.27-2.06,1.9-3.56,1.9-.66,0-1.28-.13-1.86-.38-.58-.25-1-.57-1.28-.96-.28-.38-.47-.85-.59-1.41-.08-.37-.12-.96-.12-1.78v-6.96h1.9v6.23c0,.99,.04,1.66,.12,2.01,.12,.5,.37,.89,.76,1.18,.39,.29,.87,.43,1.44,.43s1.11-.15,1.61-.44c.5-.29,.85-.69,1.06-1.2,.21-.5,.31-1.23,.31-2.19v-6.01h1.9v11.23h-1.7Z"/>
        <path class="cls-1" d="M505.54,64.94v-11.23h1.71v1.6c.82-1.23,2.02-1.85,3.57-1.85,.68,0,1.3,.12,1.87,.37s.99,.56,1.27,.96c.28,.39,.48,.86,.59,1.41,.07,.35,.11,.97,.11,1.85v6.9h-1.9v-6.83c0-.78-.07-1.35-.22-1.74-.15-.38-.41-.69-.79-.92-.38-.23-.82-.34-1.33-.34-.81,0-1.51,.26-2.1,.77-.59,.51-.88,1.49-.88,2.93v6.13h-1.9Z"/>
        <path class="cls-1" d="M524.86,64.94v-1.42c-.71,1.11-1.76,1.67-3.14,1.67-.9,0-1.72-.25-2.47-.74-.75-.49-1.33-1.18-1.74-2.07s-.62-1.9-.62-3.05,.19-2.14,.56-3.05c.37-.91,.93-1.61,1.68-2.1,.75-.49,1.58-.73,2.5-.73,.68,0,1.28,.14,1.81,.43,.53,.29,.96,.66,1.29,1.12v-5.56h1.89v15.5h-1.77Zm-6.02-5.6c0,1.44,.3,2.51,.91,3.22,.61,.71,1.32,1.07,2.15,1.07s1.54-.34,2.12-1.02c.58-.68,.87-1.72,.87-3.11,0-1.54-.3-2.66-.89-3.38s-1.32-1.08-2.19-1.08-1.55,.35-2.12,1.04-.85,1.78-.85,3.27Z"/>
      </g>
    </g>
  </g>
</svg>