<?xml version="1.0" encoding="UTF-8"?>
<svg id="Laag_2" data-name="Laag 2" xmlns="http://www.w3.org/2000/svg" viewBox="0 0 272.03 143.83">
  <defs>
    <style>
      .cls-1 {
        fill: #fff;
      }

      .cls-2 {
        fill: #e84424;
      }

      .cls-3 {
        fill: #fd1b14;
      }

      .cls-4 {
        fill: #ff7f00;
      }

      .cls-5 {
        fill: #d32324;
      }

      .cls-6 {
        fill: #076fb0;
      }

      .cls-7 {
        fill: #084da8;
      }

      .cls-8 {
        fill: #a5232a;
      }

      .cls-9 {
        fill: #2b2171;
      }

      .cls-10 {
        fill: #353a45;
      }

      .cls-11 {
        fill: #2c5e41;
      }

      .cls-12 {
        fill: #2f333a;
      }

      .cls-13 {
        fill: #2e276c;
      }
    </style>
  </defs>
  <g id="Laag_1-2" data-name="Laag 1">
    <g>
      <path class="cls-3" d="M57,14.17c0,2.44-1.99,4.41-4.42,4.41s-4.42-1.97-4.42-4.41,1.98-4.42,4.42-4.42,4.42,1.98,4.42,4.42"/>
      <path class="cls-3" d="M67.58,8.13c0,2.22-1.81,4.03-4.03,4.03s-4.03-1.81-4.03-4.03,1.8-4.03,4.03-4.03,4.03,1.8,4.03,4.03"/>
      <path class="cls-3" d="M79.56,5.01c0,1.89-1.53,3.43-3.42,3.43s-3.43-1.54-3.43-3.43,1.53-3.44,3.43-3.44,3.42,1.54,3.42,3.44"/>
      <path class="cls-3" d="M92.15,3.18c0,1.77-1.42,3.18-3.18,3.18s-3.18-1.41-3.18-3.18,1.42-3.18,3.18-3.18,3.18,1.43,3.18,3.18"/>
      <path d="M93.82,25.29c-.05,.04-.1,.07-.15,.11-.77,.58-1.48,1.22-2.14,1.93-.14,.15-.28,.31-.42,.46h0c.04,.05,.08,.1,.12,.16,.74,.93,1.59,1.78,2.52,2.51,.13,.1,.26,.2,.4,.3,.01-.1,.02-.2,.03-.3,.05-.49,.07-.99,.07-1.49,0-1.27-.16-2.5-.45-3.68h0"/>
      <path class="cls-9" d="M91.11,27.8c-.96,1.12-1.78,2.37-2.42,3.72-1.01,2.13-1.58,4.52-1.58,7.04,0,.98,.09,1.95,.26,2.89,.01,.07,.02,.14,.04,.21,3.66-2.39,6.21-6.33,6.75-10.88h0c-.13-.1-.27-.2-.4-.3-.94-.73-1.79-1.58-2.52-2.51-.04-.05-.08-.1-.12-.16"/>
      <path class="cls-13" d="M93.76,30.46c.13,.1,.26,.2,.4,.3h0c-.13-.1-.27-.2-.4-.3m-2.65-2.67h0c.04,.05,.08,.1,.12,.16-.04-.05-.08-.1-.12-.16"/>
      <path class="cls-7" d="M103.57,22.09c-3.65,0-7.02,1.19-9.75,3.2,.29,1.18,.45,2.41,.45,3.68,0,.5-.03,1-.07,1.49-.01,.1-.02,.2-.03,.3,2.5,1.83,5.59,2.91,8.93,2.91,5.13,0,9.67-2.56,12.4-6.47-.79-.84-1.68-1.59-2.63-2.24-2.65-1.82-5.85-2.88-9.3-2.88"/>
      <path d="M93.82,25.29h0c.29,1.18,.45,2.41,.45,3.68,0,.5-.02,1-.07,1.49,.05-.49,.07-.99,.07-1.49,0-1.27-.16-2.5-.45-3.68"/>
      <path class="cls-8" d="M88.07,16.76c-.07,.59-.11,1.19-.11,1.8,0,3.48,1.18,6.68,3.15,9.24,.14-.16,.27-.31,.42-.46,.65-.7,1.37-1.35,2.14-1.93,.05-.04,.1-.07,.15-.11h0s0,0,0,0h0c-.05-.22-.11-.44-.18-.66-.58-1.93-1.53-3.7-2.77-5.22-.82-1-1.76-1.89-2.8-2.66"/>
      <path class="cls-12" d="M91.53,27.33c-.14,.15-.28,.31-.42,.46h0c.14-.16,.27-.31,.42-.46m2.29-2.04c-.05,.04-.1,.07-.15,.11,.05-.04,.1-.07,.15-.11h0Z"/>
      <path class="cls-3" d="M79.15,13.84c-8.36,0-15.13,6.77-15.13,15.13s6.77,15.13,15.13,15.13c3.05,0,5.88-.9,8.26-2.46h0c-.01-.07-.03-.14-.04-.21-.17-.94-.26-1.9-.26-2.89,0-2.52,.57-4.91,1.58-7.04,.64-1.35,1.46-2.6,2.42-3.72h0c-1.98-2.55-3.15-5.76-3.15-9.24h0c0-.61,.04-1.21,.11-1.8h0c-2.5-1.83-5.58-2.91-8.92-2.91"/>
      <path class="cls-10" d="M87.37,41.44c.01,.07,.02,.14,.04,.21h0c-.01-.07-.03-.14-.04-.21m3.74-13.64c-.96,1.12-1.78,2.37-2.42,3.72,.64-1.35,1.46-2.6,2.42-3.72h0s0,0,0,0h0Z"/>
      <path class="cls-8" d="M87.96,18.56h0c0,3.48,1.18,6.68,3.15,9.24h0c-1.98-2.55-3.15-5.76-3.15-9.24"/>
      <path class="cls-4" d="M103.09,3.43c-7.74,0-14.13,5.82-15.02,13.33h0s0,0,0,0h0c1.04,.76,1.98,1.66,2.8,2.66,1.24,1.52,2.19,3.29,2.77,5.22,.07,.22,.13,.44,.18,.66,2.73-2.01,6.1-3.2,9.75-3.2,3.45,0,6.65,1.06,9.3,2.88,.95,.65,1.84,1.41,2.63,2.24h0c1.72-2.45,2.72-5.43,2.72-8.65,0-8.36-6.77-15.13-15.13-15.13"/>
      <path class="cls-11" d="M112.87,24.97c.95,.65,1.84,1.41,2.63,2.24h0c-.79-.84-1.68-1.59-2.63-2.24"/>
      <path class="cls-5" d="M93.64,24.64c.07,.22,.13,.44,.18,.66h0c-.05-.22-.11-.44-.18-.66m-5.57-7.88h0c1.04,.76,1.98,1.66,2.8,2.66-.82-1-1.76-1.89-2.8-2.66"/>
      <polyline class="cls-2" points="88.07 16.76 88.07 16.76 88.07 16.76"/>
      <path class="cls-6" d="M115.49,27.21c-2.74,3.91-7.27,6.47-12.4,6.47-3.34,0-6.43-1.08-8.93-2.91-.54,4.55-3.09,8.49-6.75,10.88,1.45,7.59,8.14,13.34,16.16,13.34,9.09,0,16.45-7.37,16.45-16.44,0-4.39-1.72-8.38-4.52-11.34"/>
      <path class="cls-1" d="M271.21,110.25l.42-1.03c-.41-.18-.99-.43-2.15-.43-1.27,0-2.5,.57-2.5,1.93,0,2.52,3.59,2.13,3.59,3.61,0,.66-.58,.95-1.5,.95-.85,0-1.39-.18-1.91-.37l-.42,1.06c.4,.22,1.15,.5,2.35,.5,1.51,0,2.93-.64,2.93-2.2,0-2.4-3.67-2.29-3.67-3.55,0-.52,.39-.75,1.17-.75s1.26,.15,1.68,.3h0Zm-5.61,2.32c0-2.61-1.77-3.72-4.29-3.72h-2.42v7.49h2.48c2.63,0,4.23-1.17,4.23-3.77h0Zm-1.43,.11c0,1.67-.87,2.53-2.68,2.53h-1.18v-5.23h.96c1.89,0,2.9,.88,2.9,2.69h0Zm-9.35,3.67h1.85v-7.49h-1.42v4.93l.06,.94-3.3-5.87h-1.79v7.49h1.43v-4.77l-.05-.94,3.21,5.71h0Zm-7.4,0h1.48l-2.54-7.49h-1.94l-2.9,7.49h1.43l.92-2.45h2.74l.81,2.45h0Zm-1.16-3.51h-2l.64-1.79,.43-1.33,.37,1.33,.56,1.79h0Zm-9.88,3.51h4.68v-1.15h-3.26v-6.34h-1.43v7.49h0Zm-2.94-1.99l-.92-1.06c.89-.42,1.31-1.18,1.31-2.06,0-1.63-1.1-2.38-2.7-2.38h-2.73v7.49h1.44v-2.69h.74c.17,0,.33-.01,.49-.02l1.11,1.34c.76,.91,1.5,1.45,2.55,1.51l.31-1.12c-.6-.16-1.14-.48-1.6-1h0Zm-1.09-3.07c0,.9-.6,1.33-1.71,1.33h-.81v-2.62h1.06c1.05,0,1.45,.38,1.45,1.29h0Zm-24.72-36.9l24.76,22.45V61.23c0-2.27-1.85-4.11-4.13-4.11h0s-4.66,0-4.66,0v21.66l-24.81-22.3v39.87h8.83v-21.96h0Zm-11.75,41.96h1.85v-7.49h-1.42v4.93l.06,.94-3.3-5.87h-1.79v7.49h1.43v-4.77l-.05-.94,3.21,5.71h0Zm-29.71-41.96l24.75,22.45V57.12h-8.78v21.66l-22.76-20.87c-.98-.9-2.28-1.44-3.71-1.44h0s-18.36,0-18.36,0c-7.54,0-13.23,4.39-13.23,10.93,0,4.89,3.1,8.24,7.93,10.78l6.89,3.6c1.25,.65,2.85,1.95,2.85,3.84,0,2.85-1.9,3.94-4.59,3.94-3.69,0-6.99-2.1-9.38-3.94l-4.84,6.59c4.99,3.85,9.88,4.55,13.78,4.55,9.28,0,13.87-4.99,13.87-11.64,0-5.59-4.35-8.79-8.98-11.08l-5.39-2.69c-2.05-1.05-3.4-1.95-3.4-4.29s1.9-3.55,4.49-3.55h14.51c3.01,0,5.45,2.42,5.5,5.42v27.43h8.84v-21.96h0Zm-55.25-12.45c0-2.83-.67-5.51-1.86-7.88-1.72,.61-3.57,.94-5.5,.94-6.77,0-12.58-4.1-15.11-9.94-4.12,1.2-7.62,3.86-9.89,7.39-.32-3.75-3.47-6.7-7.3-6.7-4.05,0-7.33,3.29-7.33,7.33,0,1.27,.32,2.46,.89,3.5-.97-.26-1.99-.4-3.04-.4-1.82,0-3.54,.41-5.08,1.14-.85-1.88-2.18-3.5-3.83-4.71,2.77-1.77,4.61-4.87,4.61-8.4,0-5.5-4.46-9.95-9.96-9.95s-9.95,4.46-9.95,9.95c0,2.88,1.22,5.47,3.17,7.29-3.99,1.92-6.75,6-6.75,10.72,0,1.91,.45,3.71,1.25,5.31-9.04,2.59-15.66,10.92-15.66,20.79,0,2.21,.33,4.34,.94,6.34-1.71-.68-3.57-1.05-5.52-1.05-8.28,0-15,6.71-15,14.99s6.72,15,15,15,14.99-6.71,14.99-15c0-.63-.04-1.24-.11-1.85,3.3,2.03,7.18,3.21,11.33,3.21,2,0,3.95-.27,5.79-.78,3.93,4.22,9.54,6.86,15.76,6.86,2,0,3.94-.27,5.78-.79-.12,.7-.18,1.42-.18,2.16,0,4.31,2.17,8.13,5.48,10.41-2.82,1.36-4.78,4.24-4.78,7.6,0,4.65,3.77,8.42,8.42,8.42s8.43-3.77,8.43-8.42c0-2.19-.83-4.17-2.19-5.67,5.67-1.25,9.91-6.3,9.91-12.34,0-6.75-5.29-12.27-11.95-12.63,.89-1.64,1.57-3.4,2.02-5.25,.11,0,.23,0,.35,0,8.72,0,15.79-7.07,15.79-15.79,0-1.8-.3-3.53-.86-5.14,6.95-2.34,11.95-8.92,11.95-16.66h0Zm-33.49,7.46c-1.88,.86-3.56,2.09-4.95,3.58,.7-1.51,1.1-3.2,1.1-4.97,0-2.89-1.04-5.54-2.77-7.6,.15,0,.29,.01,.44,.01,1.86,0,3.55-.69,4.85-1.83-.21,1.09-.32,2.21-.32,3.35,0,2.67,.6,5.19,1.66,7.46h0ZM52.1,25.44c0-2.89-2.33-5.22-5.22-5.22s-5.23,2.33-5.23,5.22,2.34,5.23,5.23,5.23,5.22-2.35,5.22-5.23h0ZM126.64,108.85h-1.79v7.49h1.43v-4.77l-.05-.94,3.21,5.71h1.85v-7.49h-1.42v4.93l.06,.94-3.3-5.87h0Zm14.19,3.75c0-2.29-1.2-3.87-3.79-3.87-2.46,0-4.02,1.38-4.02,3.85s1.3,3.89,3.82,3.89,3.99-1.45,3.99-3.87h0Zm-1.46-.01c0,1.55-.72,2.73-2.5,2.73-1.66,0-2.4-1.25-2.4-2.75s.75-2.68,2.47-2.68,2.43,1.15,2.43,2.7h0Zm6.96,2.37c.76,.91,1.5,1.45,2.55,1.51l.31-1.12c-.6-.16-1.14-.48-1.6-1l-.92-1.06c.89-.42,1.31-1.18,1.31-2.06,0-1.63-1.1-2.38-2.7-2.38h-2.73v7.49h1.44v-2.69h.74c.17,0,.33-.01,.49-.02l1.11,1.34h0Zm.17-3.69c0,.9-.6,1.33-1.71,1.33h-.81v-2.62h1.06c1.05,0,1.45,.38,1.45,1.29h0Zm6.53,5.07v-6.35h2.43v-1.14h-6.29v1.14h2.44v6.35h1.43Zm5.12,0v-3.21h3.55v3.21h1.43v-7.49h-1.43v3.17h-3.55v-3.17h-1.43v7.49h1.43Zm8.63-1.13v-2.09h2.97v-1.08h-2.97v-2.07h3.2v-1.12h-4.63v7.49h4.88v-1.13h-3.45Zm6.61-1.56h.74c.17,0,.33-.01,.49-.02l1.11,1.34c.76,.91,1.5,1.45,2.55,1.51l.31-1.12c-.6-.16-1.15-.48-1.6-1l-.92-1.06c.89-.42,1.31-1.18,1.31-2.06,0-1.63-1.1-2.38-2.7-2.38h-2.73v7.49h1.44v-2.69h0Zm0-1.05v-2.62h1.06c1.05,0,1.45,.38,1.45,1.29s-.61,1.33-1.71,1.33h-.81Zm7.97-1.03l-.05-.94,3.21,5.71h1.85v-7.49h-1.42v4.93l.06,.94-3.3-5.87h-1.79v7.49h1.43v-4.77h0Zm-53.61,9.28l-2.91,7.49h1.43l.92-2.45h2.75l.8,2.45h1.48l-2.54-7.49h-1.94Zm-.16,3.99l.64-1.79,.43-1.32,.37,1.32,.56,1.79h-2Zm7.4-3.99h-1.43v7.49h4.68v-1.15h-3.25v-6.34h0Zm66.4-5.64v-2.09h2.97v-1.08h-2.97v-2.07h3.2v-1.12h-4.63v7.49h4.88v-1.13h-3.45Zm-60.39,5.64h-1.43v7.49h4.68v-1.15h-3.25v-6.34h0Zm68.48-4.51v-6.35h2.43v-1.14h-6.29v1.14h2.44v6.35h1.43Zm-62.47,4.51h-1.43v7.49h1.43v-7.49h0Zm67.59-12h-1.43v7.49h1.43v-3.21h3.55v3.21h1.43v-7.49h-1.43v3.17h-3.55v-3.17h0Zm-63.35,12l-2.91,7.49h1.43l.92-2.45h2.75l.81,2.45h1.48l-2.54-7.49h-1.94Zm-.16,3.99l.64-1.79,.43-1.32,.37,1.32,.56,1.79h-2Zm75.34-15.99h-4.63v7.49h4.88v-1.13h-3.45v-2.09h2.97v-1.08h-2.97v-2.07h3.2v-1.12h0Zm-67.58,12h-1.79v7.49h1.43v-4.77l-.05-.94,3.21,5.71h1.85v-7.49h-1.42v4.93l.06,.94-3.3-5.87h0Zm6.38,3.79c0,2.34,1.4,3.8,4.04,3.8,1.1,0,1.73-.15,2.25-.33l-.33-1.1c-.43,.13-.87,.22-1.73,.22-1.6,0-2.77-.9-2.77-2.7s1.11-2.59,2.56-2.58c.95,.01,1.31,.12,1.85,.28l.39-1.07c-.4-.18-1.05-.4-2.27-.4-2.62,0-3.99,1.37-3.99,3.88h0Zm12.42-3.79h-4.63v7.49h4.88v-1.13h-3.45v-2.09h2.97v-1.08h-2.97v-2.07h3.2v-1.12h0Z"/>
    </g>
  </g>
</svg>